<svg width="1440" height="72" viewBox="0 0 1440 72" fill="none" xmlns="http://www.w3.org/2000/svg">
<mask id="path-1-inside-1_1_64" fill="white">
<path d="M0 0H1440V72H0V0Z"/>
</mask>
<path d="M0 0H1440V72H0V0Z" fill="white"/>
<path d="M1440 71H0V73H1440V71Z" fill="#7D7D7D" mask="url(#path-1-inside-1_1_64)"/>
<path d="M21.669 19.404C21.7989 18.595 22.497 18 23.3164 18H159.994C161.037 18 161.825 18.9467 161.635 19.9725L155.452 53.344C155.305 54.1348 154.615 54.7086 153.811 54.7086H17.9579C16.9308 54.7086 16.1476 53.7895 16.3104 52.7755L21.669 19.404Z" fill="#E11138"/>
<path d="M49.2853 28.7492L45.4392 43.5031H41.0887L38.7348 33.7932L36.2969 43.5031H31.9464L28.2054 28.7492H32.0514L34.1742 39.4888L36.8013 28.7492H40.7524L43.2745 39.4888L45.4182 28.7492H49.2853ZM62.1426 37.4502C62.1426 37.7865 62.1215 38.1367 62.0795 38.501H53.946C54.002 39.2296 54.2332 39.7901 54.6395 40.1824C55.0599 40.5607 55.5713 40.7498 56.1738 40.7498C57.0705 40.7498 57.694 40.3715 58.0443 39.6149H61.8693C61.6732 40.3855 61.3159 41.0791 60.7975 41.6956C60.2931 42.3121 59.6556 42.7955 58.8849 43.1458C58.1143 43.496 57.2526 43.6712 56.2999 43.6712C55.1509 43.6712 54.1281 43.426 53.2314 42.9356C52.3347 42.4452 51.6341 41.7446 51.1297 40.8339C50.6253 39.9232 50.3731 38.8583 50.3731 37.6393C50.3731 36.4204 50.6183 35.3555 51.1087 34.4448C51.6131 33.534 52.3137 32.8335 53.2104 32.3431C54.1071 31.8527 55.1369 31.6075 56.2999 31.6075C57.4348 31.6075 58.4436 31.8457 59.3263 32.3221C60.209 32.7984 60.8956 33.478 61.386 34.3607C61.8904 35.2434 62.1426 36.2732 62.1426 37.4502ZM58.4646 36.5044C58.4646 35.8879 58.2544 35.3975 57.8341 35.0332C57.4138 34.6689 56.8883 34.4868 56.2578 34.4868C55.6553 34.4868 55.1439 34.6619 54.7236 35.0122C54.3173 35.3625 54.0651 35.8599 53.967 36.5044H58.4646ZM67.6324 33.436C67.9687 32.8895 68.4521 32.4482 69.0826 32.1119C69.7131 31.7756 70.4347 31.6075 71.2473 31.6075C72.2141 31.6075 73.0898 31.8527 73.8744 32.3431C74.6591 32.8335 75.2756 33.534 75.7239 34.4448C76.1863 35.3555 76.4175 36.4134 76.4175 37.6183C76.4175 38.8233 76.1863 39.8881 75.7239 40.8129C75.2756 41.7236 74.6591 42.4312 73.8744 42.9356C73.0898 43.426 72.2141 43.6712 71.2473 43.6712C70.4206 43.6712 69.6991 43.5101 69.0826 43.1878C68.4661 42.8515 67.9827 42.4102 67.6324 41.8637V43.5031H64.0385V27.9505H67.6324V33.436ZM72.7605 37.6183C72.7605 36.7216 72.5083 36.021 72.0039 35.5166C71.5135 34.9982 70.904 34.739 70.1754 34.739C69.4609 34.739 68.8514 34.9982 68.347 35.5166C67.8566 36.035 67.6114 36.7426 67.6114 37.6393C67.6114 38.5361 67.8566 39.2436 68.347 39.762C68.8514 40.2805 69.4609 40.5397 70.1754 40.5397C70.89 40.5397 71.4995 40.2805 72.0039 39.762C72.5083 39.2296 72.7605 38.515 72.7605 37.6183Z" fill="black"/>
<path d="M77.6934 36.1051C77.6934 34.6479 78.0087 33.3519 78.6392 32.217C79.2697 31.0681 80.1454 30.1783 81.2663 29.5478C82.4012 28.9033 83.6832 28.5811 85.1124 28.5811C86.8638 28.5811 88.363 29.0434 89.61 29.9682C90.857 30.8929 91.6907 32.1539 92.111 33.7512H88.1598C87.8656 33.1347 87.4453 32.6653 86.8988 32.3431C86.3664 32.0208 85.7569 31.8597 85.0704 31.8597C83.9635 31.8597 83.0667 32.245 82.3802 33.0156C81.6936 33.7862 81.3504 34.8161 81.3504 36.1051C81.3504 37.3941 81.6936 38.424 82.3802 39.1946C83.0667 39.9652 83.9635 40.3505 85.0704 40.3505C85.7569 40.3505 86.3664 40.1894 86.8988 39.8671C87.4453 39.5449 87.8656 39.0755 88.1598 38.459H92.111C91.6907 40.0563 90.857 41.3173 89.61 42.242C88.363 43.1528 86.8638 43.6081 85.1124 43.6081C83.6832 43.6081 82.4012 43.2929 81.2663 42.6624C80.1454 42.0179 79.2697 41.1281 78.6392 39.9932C78.0087 38.8583 77.6934 37.5623 77.6934 36.1051ZM93.5973 37.6183C93.5973 36.4134 93.8215 35.3555 94.2698 34.4448C94.7322 33.534 95.3557 32.8335 96.1404 32.3431C96.925 31.8527 97.8007 31.6075 98.7675 31.6075C99.5941 31.6075 100.316 31.7756 100.932 32.1119C101.563 32.4482 102.046 32.8895 102.382 33.436V31.7756H105.976V43.5031H102.382V41.8427C102.032 42.3892 101.542 42.8305 100.911 43.1668C100.295 43.5031 99.5731 43.6712 98.7464 43.6712C97.7937 43.6712 96.925 43.426 96.1404 42.9356C95.3557 42.4312 94.7322 41.7236 94.2698 40.8129C93.8215 39.8881 93.5973 38.8233 93.5973 37.6183ZM102.382 37.6393C102.382 36.7426 102.13 36.035 101.626 35.5166C101.135 34.9982 100.533 34.739 99.8183 34.739C99.1037 34.739 98.4942 34.9982 97.9898 35.5166C97.4994 36.021 97.2542 36.7216 97.2542 37.6183C97.2542 38.515 97.4994 39.2296 97.9898 39.762C98.4942 40.2805 99.1037 40.5397 99.8183 40.5397C100.533 40.5397 101.135 40.2805 101.626 39.762C102.13 39.2436 102.382 38.5361 102.382 37.6393ZM112.17 33.7302C112.591 33.0857 113.116 32.5813 113.746 32.217C114.377 31.8387 115.078 31.6495 115.848 31.6495V35.4536H114.86C113.964 35.4536 113.291 35.6497 112.843 36.0421C112.394 36.4204 112.17 37.0929 112.17 38.0597V43.5031H108.576V31.7756H112.17V33.7302ZM121.16 33.7302C121.58 33.0857 122.106 32.5813 122.736 32.217C123.367 31.8387 124.067 31.6495 124.838 31.6495V35.4536H123.85C122.953 35.4536 122.281 35.6497 121.832 36.0421C121.384 36.4204 121.16 37.0929 121.16 38.0597V43.5031H117.566V31.7756H121.16V33.7302ZM131.894 43.6712C130.745 43.6712 129.708 43.426 128.783 42.9356C127.873 42.4452 127.151 41.7446 126.619 40.8339C126.1 39.9232 125.841 38.8583 125.841 37.6393C125.841 36.4344 126.107 35.3765 126.64 34.4658C127.172 33.541 127.901 32.8335 128.825 32.3431C129.75 31.8527 130.787 31.6075 131.936 31.6075C133.085 31.6075 134.122 31.8527 135.046 32.3431C135.971 32.8335 136.7 33.541 137.232 34.4658C137.765 35.3765 138.031 36.4344 138.031 37.6393C138.031 38.8443 137.758 39.9092 137.211 40.8339C136.679 41.7446 135.943 42.4452 135.004 42.9356C134.08 43.426 133.043 43.6712 131.894 43.6712ZM131.894 40.5607C132.58 40.5607 133.162 40.3085 133.638 39.8041C134.129 39.2997 134.374 38.5781 134.374 37.6393C134.374 36.7006 134.136 35.979 133.659 35.4746C133.197 34.9702 132.622 34.718 131.936 34.718C131.235 34.718 130.654 34.9702 130.192 35.4746C129.729 35.965 129.498 36.6866 129.498 37.6393C129.498 38.5781 129.722 39.2997 130.17 39.8041C130.633 40.3085 131.207 40.5607 131.894 40.5607ZM144.708 43.6712C143.685 43.6712 142.775 43.496 141.976 43.1458C141.177 42.7955 140.547 42.3191 140.085 41.7166C139.622 41.1001 139.363 40.4136 139.307 39.657H142.859C142.901 40.0633 143.09 40.3926 143.426 40.6448C143.763 40.897 144.176 41.0231 144.666 41.0231C145.115 41.0231 145.458 40.939 145.696 40.7709C145.948 40.5887 146.074 40.3575 146.074 40.0773C146.074 39.741 145.899 39.4958 145.549 39.3417C145.199 39.1736 144.631 38.9914 143.847 38.7953C143.006 38.5991 142.305 38.3959 141.745 38.1858C141.184 37.9616 140.701 37.6183 140.295 37.1559C139.888 36.6796 139.685 36.0421 139.685 35.2434C139.685 34.5709 139.867 33.9614 140.232 33.4149C140.61 32.8545 141.156 32.4131 141.871 32.0909C142.6 31.7686 143.461 31.6075 144.456 31.6075C145.927 31.6075 147.083 31.9718 147.924 32.7004C148.779 33.429 149.269 34.3957 149.395 35.6007H146.074C146.018 35.1944 145.836 34.8721 145.528 34.6339C145.234 34.3957 144.841 34.2766 144.351 34.2766C143.931 34.2766 143.608 34.3607 143.384 34.5288C143.16 34.683 143.048 34.9001 143.048 35.1804C143.048 35.5166 143.223 35.7688 143.573 35.937C143.938 36.1051 144.498 36.2732 145.255 36.4414C146.123 36.6656 146.831 36.8897 147.377 37.1139C147.924 37.3241 148.4 37.6744 148.807 38.1648C149.227 38.6411 149.444 39.2857 149.458 40.0983C149.458 40.7849 149.262 41.4014 148.87 41.9478C148.491 42.4802 147.938 42.9006 147.209 43.2088C146.495 43.5171 145.661 43.6712 144.708 43.6712Z" fill="white"/>
</svg>
